<?xml version="1.0" encoding="UTF-8" standalone="no"?>
<!DOCTYPE svg PUBLIC "-//W3C//DTD SVG 1.1//EN" "http://www.w3.org/Graphics/SVG/1.1/DTD/svg11.dtd">
<svg width="100%" height="100%" viewBox="0 0 1334 800" version="1.1" xmlns="http://www.w3.org/2000/svg" xmlns:xlink="http://www.w3.org/1999/xlink" xml:space="preserve" xmlns:serif="http://www.serif.com/" style="fill-rule:evenodd;clip-rule:evenodd;">
    <g>
        <path d="M733.81,0L517.36,399.32C517.129,399.743 517.129,400.257 517.36,400.68L733.79,800" style="fill:none;fill-rule:nonzero;stroke:rgb(34,123,164);stroke-width:2px;"/>
        <path d="M249.26,472.62C249.413,472.626 249.549,472.72 249.61,472.86L278.85,543.95C279.203,544.81 279.557,544.81 279.91,543.95L309.18,472.92C309.18,472.919 309.181,472.918 309.181,472.917C309.313,472.592 309.693,472.434 310.024,472.567C310.026,472.568 310.028,472.569 310.03,472.57L380.2,501.47C380.693,501.67 380.84,501.527 380.64,501.04L351.78,431.01C351.739,430.911 351.718,430.806 351.718,430.699C351.718,430.371 351.917,430.075 352.22,429.95L423.24,400.75C424.02,400.43 424.02,400.11 423.24,399.79L352.38,370.63C351.767,370.377 351.587,369.943 351.84,369.33L380.53,299.76C380.797,299.12 380.61,298.93 379.97,299.19L310.36,327.84C309.849,328.048 309.259,327.805 309.05,327.3L279.8,256.22C279.533,255.58 279.267,255.58 279,256.22L249.64,327.61C249.539,327.864 249.291,328.032 249.018,328.032C248.929,328.032 248.842,328.014 248.76,327.98L178.62,299.12C178.581,299.104 178.538,299.096 178.496,299.096C178.315,299.096 178.166,299.245 178.166,299.426C178.166,299.468 178.174,299.511 178.19,299.55L207.1,369.62C207.101,369.621 207.101,369.622 207.102,369.624C207.247,369.967 207.081,370.371 206.732,370.519C206.731,370.519 206.731,370.52 206.73,370.52L135.24,399.89C134.613,400.15 134.613,400.407 135.24,400.66L206.88,430.1C207.064,430.172 207.186,430.35 207.186,430.547C207.186,430.61 207.174,430.672 207.15,430.73L178.14,501.17C178.127,501.201 178.121,501.233 178.121,501.267C178.121,501.404 178.233,501.517 178.371,501.517C178.401,501.517 178.431,501.511 178.46,501.5C201.72,491.893 224.983,482.32 248.25,472.78C248.577,472.647 248.913,472.593 249.26,472.62" style="fill:none;fill-rule:nonzero;stroke:rgb(128,151,175);stroke-width:2px;"/>
    </g>
    <path d="M0,0L733.81,0L517.36,399.32C517.129,399.743 517.129,400.257 517.36,400.68L733.79,800L0,800L0,0ZM249.26,472.62C249.413,472.626 249.549,472.72 249.61,472.86L278.85,543.95C279.203,544.81 279.557,544.81 279.91,543.95L309.18,472.92C309.18,472.919 309.181,472.918 309.181,472.917C309.313,472.592 309.693,472.434 310.024,472.567C310.026,472.568 310.028,472.569 310.03,472.57L380.2,501.47C380.693,501.67 380.84,501.527 380.64,501.04L351.78,431.01C351.739,430.911 351.718,430.806 351.718,430.699C351.718,430.371 351.917,430.075 352.22,429.95L423.24,400.75C424.02,400.43 424.02,400.11 423.24,399.79L352.38,370.63C351.767,370.377 351.587,369.943 351.84,369.33L380.53,299.76C380.797,299.12 380.61,298.93 379.97,299.19L310.36,327.84C309.849,328.048 309.259,327.805 309.05,327.3L279.8,256.22C279.533,255.58 279.267,255.58 279,256.22L249.64,327.61C249.539,327.864 249.291,328.032 249.018,328.032C248.929,328.032 248.842,328.014 248.76,327.98L178.62,299.12C178.581,299.104 178.538,299.096 178.496,299.096C178.315,299.096 178.166,299.245 178.166,299.426C178.166,299.468 178.174,299.511 178.19,299.55L207.1,369.62C207.101,369.621 207.101,369.622 207.102,369.624C207.247,369.967 207.081,370.371 206.732,370.519C206.731,370.519 206.731,370.52 206.73,370.52L135.24,399.89C134.613,400.15 134.613,400.407 135.24,400.66L206.88,430.1C207.064,430.172 207.186,430.35 207.186,430.547C207.186,430.61 207.174,430.672 207.15,430.73L178.14,501.17C178.127,501.201 178.121,501.233 178.121,501.267C178.121,501.404 178.233,501.517 178.371,501.517C178.401,501.517 178.431,501.511 178.46,501.5C201.72,491.893 224.983,482.32 248.25,472.78C248.577,472.647 248.913,472.593 249.26,472.62Z" style="fill:rgb(0,46,94);fill-rule:nonzero;"/>
    <path d="M733.81,0L1334,0L1334,800L733.79,800L517.36,400.68C517.129,400.257 517.129,399.743 517.36,399.32L733.81,0Z" style="fill:rgb(68,200,233);fill-rule:nonzero;"/>
    <path d="M249.26,472.62C248.913,472.593 248.577,472.647 248.25,472.78C224.983,482.32 201.72,491.893 178.46,501.5C178.431,501.511 178.401,501.517 178.371,501.517C178.233,501.517 178.121,501.404 178.121,501.267C178.121,501.233 178.127,501.201 178.14,501.17L207.15,430.73C207.174,430.672 207.186,430.61 207.186,430.547C207.186,430.35 207.064,430.172 206.88,430.1L135.24,400.66C134.613,400.407 134.613,400.15 135.24,399.89L206.73,370.52C206.731,370.52 206.731,370.519 206.732,370.519C207.081,370.371 207.247,369.967 207.102,369.624C207.101,369.622 207.101,369.621 207.1,369.62L178.19,299.55C178.174,299.511 178.166,299.468 178.166,299.426C178.166,299.245 178.315,299.096 178.496,299.096C178.538,299.096 178.581,299.104 178.62,299.12L248.76,327.98C248.842,328.014 248.929,328.032 249.018,328.032C249.291,328.032 249.539,327.864 249.64,327.61L279,256.22C279.267,255.58 279.533,255.58 279.8,256.22L309.05,327.3C309.259,327.805 309.849,328.048 310.36,327.84L379.97,299.19C380.61,298.93 380.797,299.12 380.53,299.76L351.84,369.33C351.587,369.943 351.767,370.377 352.38,370.63L423.24,399.79C424.02,400.11 424.02,400.43 423.24,400.75L352.22,429.95C351.917,430.075 351.718,430.371 351.718,430.699C351.718,430.806 351.739,430.911 351.78,431.01L380.64,501.04C380.84,501.527 380.693,501.67 380.2,501.47L310.03,472.57C310.028,472.569 310.026,472.568 310.024,472.567C309.693,472.434 309.313,472.592 309.181,472.917C309.181,472.918 309.18,472.919 309.18,472.92L279.91,543.95C279.557,544.81 279.203,544.81 278.85,543.95L249.61,472.86C249.549,472.72 249.413,472.626 249.26,472.62Z" style="fill:white;fill-rule:nonzero;"/>
</svg>
